<svg id="Слой_1" data-name="Слой 1" xmlns="http://www.w3.org/2000/svg" viewBox="632.64 989.53 1656.42 855.25"><defs><style>.cls-1{fill:#8fad81;}</style></defs><path class="cls-1" d="M1731.31,1300l25.9,7.94v4.17h-97.75v-4.17l27.15-7.94-17.54-241.86-107.36,254h-13.78l-109-254.39-18,243.12,25.48,7.93v3.34H1385v-3.34l27.15-7.93,19.64-269-27.16-7.94v-4.18h63.92L1573,1266.12l103.6-246.46H1738v4.18l-25.9,7.94Z"/><path class="cls-1" d="M1945.18,1017.16c82.71,0,140.78,57.64,140.78,148.71,0,91.9-58.07,148.71-140.78,148.71-83.13,0-140.77-56.81-140.77-148.71C1804.41,1074.8,1862.05,1017.16,1945.18,1017.16Zm0,291.15c54.31,0,93.15-48,93.15-142,0-94.41-38.84-142.87-93.15-142.87-54.72,0-93.57,48.46-93.57,142.87C1851.61,1260.28,1890.46,1308.31,1945.18,1308.31Z"/><path class="cls-1" d="M2204.12,1300l25.9,7.94v4.17h-97.33v-4.17l27.16-7.94V1031.78l-27.16-7.94v-4.18H2230v4.18l-25.9,7.94Z"/><path class="cls-1" d="M1402.14,1617.05h7.52c12.95,54.72,57.64,64.33,86,64.33,46,0,73.94-23.39,73.94-63.5,0-38.85-26.74-47.62-73.1-61-47.21-13.78-93.58-26.73-93.58-84,0-46,29.66-82.71,96.08-82.71,28.41,0,51,7.1,70.18,19.63l17.54-12.11,4.18,4.18v59.31h-7.52c-12.11-54.3-53-64.74-78.11-64.74-40.94,0-66.84,24.22-66.84,58.9,0,36.34,27.57,44.69,68.51,57.22,49.29,15.46,98.16,32.17,98.16,90.24,0,47.62-31.74,84.79-105.26,84.79-30.08,0-54.31-6.68-75.61-19.63l-18,12.53-4.18-4.17Z"/><path class="cls-1" d="M1856.62,1676.78l19.63-42.61h6.69v51H1654v-3.34l27.15-6.69V1402.75l-27.15-6.26v-3.76h224.74v51.38h-6.68l-19.64-43H1726.29v128.66h101.92l8.78-32.58h6.26v73.94H1837l-8.78-32.59H1726.29v138.27Z"/><path class="cls-1" d="M2005.32,1673l25.9,7.94v4.18h-97.33V1681L1961,1673V1404.84l-27.15-7.94v-4.17h97.33v4.17l-25.9,7.94Z"/><path class="cls-1" d="M2127.92,1520.64l2.3-3.31h-22.43v-.56c.18-2.58.28-5.57.28-9v-28.21a16.26,16.26,0,0,0-2.41.28l-3,.51-.22-.34,1.29-2h22.54l-2.13-3.31.06-.11h2.46l3,8.63-1,.45a6.63,6.63,0,0,0-2.27-2.19,13.66,13.66,0,0,0-4.71-1.37,65.39,65.39,0,0,0-9.06-.48h-1.35v17h8.08a.1.1,0,0,0,.11-.11v-3.93h2.64l-1.29,10.49h-1.35v-4.43a.1.1,0,0,0-.11-.11h-8.08v17H2113a98.75,98.75,0,0,0,11.58-.51,16.51,16.51,0,0,0,5.6-1.4,5.9,5.9,0,0,0,2.33-2.19l.11-.11.11-.22,1.07.5-3.25,9H2128Z"/><path class="cls-1" d="M2161.11,1518.17a18.08,18.08,0,0,1-7.12-1.34,27,27,0,0,1-5.72-3.31c-.41-.38-.78-.74-1.12-1.1s-.63-.64-.89-.87l2.35,6.85-.17.33h-2.13l-4.09-16,1.68-.5.73,2.19a15.09,15.09,0,0,0,3.64,5.66,22.48,22.48,0,0,0,6.2,4.43,16.15,16.15,0,0,0,7.15,1.74,11.43,11.43,0,0,0,6.65-1.85,6.17,6.17,0,0,0,2.66-5.39,5.81,5.81,0,0,0-1.66-4.26,12.22,12.22,0,0,0-4-2.69,63.69,63.69,0,0,0-6.37-2.19l-.47-.11-.48-.11a65.85,65.85,0,0,1-7.15-2.66,14,14,0,0,1-4.91-3.7,10.25,10.25,0,0,1-.42-11.61,9.36,9.36,0,0,1,4.21-3.34,14.62,14.62,0,0,1,5.58-1.06,16.26,16.26,0,0,1,5,.7,15.94,15.94,0,0,1,3.61,1.59,28.23,28.23,0,0,1,3,2.14l.9.67a5.18,5.18,0,0,0,.78.5l-2-5.16.17-.33h2.18l3.54,13.68-1.57.5-.17-.39a17.86,17.86,0,0,0-3.79-6.19,18.12,18.12,0,0,0-5.66-4.13,15.23,15.23,0,0,0-6.42-1.45,9.74,9.74,0,0,0-6.06,1.82,6.16,6.16,0,0,0-2.41,5.24A6.33,6.33,0,0,0,2148,1491a11.68,11.68,0,0,0,4,2.77,55.49,55.49,0,0,0,6.09,2.08l.33.11.68.22a67.69,67.69,0,0,1,7.43,2.64,14,14,0,0,1,5,3.59,8.48,8.48,0,0,1,2,5.83,8.87,8.87,0,0,1-1.71,5.55,10.19,10.19,0,0,1-4.52,3.34A16.8,16.8,0,0,1,2161.11,1518.17Z"/><path class="cls-1" d="M2214.72,1484.08l0-.12a6.65,6.65,0,0,0-2.08-2.13,12.62,12.62,0,0,0-4.37-1.57,40.28,40.28,0,0,0-7.85-.61h-.56v36.17a19.88,19.88,0,0,0,2.55-.29c1.21-.18,2.25-.37,3.11-.56l.23.34-1.29,2h-8.14v-.56q.29-4,.28-9v-28.15h-.61a40.2,40.2,0,0,0-7.88.61,13,13,0,0,0-4.35,1.55,5.82,5.82,0,0,0-2,2.1l-.11.11-1.12-.56,3.09-8.8h2.52v.11l-2.13,3.31h28.43l-2.13-3.31.05-.11h2.47l3.14,8.86Z"/><path class="cls-1" d="M2229.36,1516.77q.29-3.87.28-9v-28.21a16.26,16.26,0,0,0-2.41.28l-3,.51-.23-.34,1.29-2h13.46a24.89,24.89,0,0,1,11.3,2.46,17.9,17.9,0,0,1,7.54,6.93,21,21,0,0,1,0,20.41,18,18,0,0,1-7.54,6.95,24.52,24.52,0,0,1-11.3,2.5h-9.42Zm9.48-1.35a19.35,19.35,0,0,0,9.47-2.21,15.58,15.58,0,0,0,6.26-6.23,20.59,20.59,0,0,0,0-18.56,15.61,15.61,0,0,0-6.26-6.22,19.35,19.35,0,0,0-9.47-2.22h-6v35.44Z"/><path class="cls-1" d="M2128.56,1594.23l2.25-3.25h-28v-1.18l17.44-12.5a32.42,32.42,0,0,0,3.34-2.64,19.4,19.4,0,0,0,2.61-2.86,10.73,10.73,0,0,1-3.84,2.16,15.31,15.31,0,0,1-4.91.76,18.1,18.1,0,0,1-7.71-1.57,13.32,13.32,0,0,1-5.33-4.26,10.21,10.21,0,0,1-1.93-6.11,10.11,10.11,0,0,1,1.93-6.06,13.28,13.28,0,0,1,5.38-4.26,18.5,18.5,0,0,1,7.77-1.57,19.13,19.13,0,0,1,7.77,1.51,12.62,12.62,0,0,1,5.38,4.24,10.42,10.42,0,0,1,1.94,6.19,12.28,12.28,0,0,1-1,4.8,17.69,17.69,0,0,1-2.86,4.54,33.16,33.16,0,0,1-4.38,4.18c-.71.59-1.57,1.25-2.58,2l-14.13,10h7.12c5.16,0,9-.08,11.41-.25a18.68,18.68,0,0,0,4.91-.76,3.81,3.81,0,0,0,1.85-1.46l.06,0,.17-.34,1,.45-3.09,8.47h-2.47Zm-11-21.25a14.79,14.79,0,0,0,6.31-1.29,10.19,10.19,0,0,0,4.29-3.53,8.89,8.89,0,0,0,1.51-5.1,9.7,9.7,0,0,0-1.54-5.41,10.31,10.31,0,0,0-4.29-3.71,14.45,14.45,0,0,0-6.28-1.31,14.28,14.28,0,0,0-6.25,1.31,10.38,10.38,0,0,0-4.26,3.65,9.36,9.36,0,0,0-1.54,5.3,9.21,9.21,0,0,0,1.54,5.19,10.15,10.15,0,0,0,4.26,3.61A14.42,14.42,0,0,0,2117.57,1573Z"/><path class="cls-1" d="M2160,1591.82a14.57,14.57,0,0,1-8.55-2.63,17.58,17.58,0,0,1-5.92-7.32,25.11,25.11,0,0,1-2.13-10.51,24.83,24.83,0,0,1,2.16-10.52,17.81,17.81,0,0,1,5.92-7.32,15.16,15.16,0,0,1,17.07,0,17.72,17.72,0,0,1,5.95,7.32,26.67,26.67,0,0,1,0,21,17.72,17.72,0,0,1-5.95,7.32A14.57,14.57,0,0,1,2160,1591.82Zm0-1.9a11,11,0,0,0,6.9-2.36,15.39,15.39,0,0,0,4.74-6.61,27.75,27.75,0,0,0,0-19.18,15.65,15.65,0,0,0-4.74-6.65,11.19,11.19,0,0,0-13.8,0,15.86,15.86,0,0,0-4.76,6.65,27.3,27.3,0,0,0,0,19.18,15.59,15.59,0,0,0,4.76,6.61A11,11,0,0,0,2160,1589.92Z"/><path class="cls-1" d="M2213,1594.23l2.25-3.25h-28v-1.18l17.44-12.5a32.42,32.42,0,0,0,3.34-2.64,19.4,19.4,0,0,0,2.61-2.86,10.73,10.73,0,0,1-3.84,2.16,15.31,15.31,0,0,1-4.91.76,18.1,18.1,0,0,1-7.71-1.57,13.32,13.32,0,0,1-5.33-4.26,10.21,10.21,0,0,1-1.93-6.11,10.11,10.11,0,0,1,1.93-6.06,13.25,13.25,0,0,1,5.39-4.26,18.46,18.46,0,0,1,7.76-1.57,19.13,19.13,0,0,1,7.77,1.51,12.62,12.62,0,0,1,5.38,4.24,10.42,10.42,0,0,1,1.94,6.19,12.28,12.28,0,0,1-1,4.8,17.69,17.69,0,0,1-2.86,4.54,32.55,32.55,0,0,1-4.38,4.18c-.71.59-1.57,1.25-2.58,2l-14.13,10h7.12q7.74,0,11.42-.25a18.66,18.66,0,0,0,4.9-.76,3.81,3.81,0,0,0,1.85-1.46l.06,0,.17-.34,1,.45-3.09,8.47h-2.46ZM2202,1573a14.79,14.79,0,0,0,6.31-1.29,10.19,10.19,0,0,0,4.29-3.53,8.89,8.89,0,0,0,1.51-5.1,9.7,9.7,0,0,0-1.54-5.41,10.31,10.31,0,0,0-4.29-3.71,14.45,14.45,0,0,0-6.28-1.31,14.28,14.28,0,0,0-6.25,1.31,10.51,10.51,0,0,0-4.26,3.65,9.36,9.36,0,0,0-1.54,5.3,9.21,9.21,0,0,0,1.54,5.19,10.27,10.27,0,0,0,4.26,3.61A14.42,14.42,0,0,0,2202,1573Z"/><path class="cls-1" d="M2252.77,1594.23,2255,1591h-28v-1.18l17.44-12.5a32.42,32.42,0,0,0,3.34-2.64,19.4,19.4,0,0,0,2.61-2.86,10.69,10.69,0,0,1-3.85,2.16,15.25,15.25,0,0,1-4.9.76,18.1,18.1,0,0,1-7.71-1.57,13.25,13.25,0,0,1-5.33-4.26,10.21,10.21,0,0,1-1.93-6.11,10.11,10.11,0,0,1,1.93-6.06,13.21,13.21,0,0,1,5.38-4.26,18.5,18.5,0,0,1,7.77-1.57,19.13,19.13,0,0,1,7.77,1.51,12.62,12.62,0,0,1,5.38,4.24,10.41,10.41,0,0,1,1.93,6.19,12.26,12.26,0,0,1-1,4.8,17.69,17.69,0,0,1-2.86,4.54,33.16,33.16,0,0,1-4.38,4.18c-.71.59-1.57,1.25-2.58,2l-14.13,10H2239q7.74,0,11.41-.25a18.68,18.68,0,0,0,4.91-.76,3.81,3.81,0,0,0,1.85-1.46l.06,0,.17-.34,1,.45-3.08,8.47h-2.47Zm-11-21.25a14.82,14.82,0,0,0,6.31-1.29,10.19,10.19,0,0,0,4.29-3.53,8.89,8.89,0,0,0,1.51-5.1,9.7,9.7,0,0,0-1.54-5.41,10.31,10.31,0,0,0-4.29-3.71,14.48,14.48,0,0,0-6.28-1.31,14.25,14.25,0,0,0-6.25,1.31,10.38,10.38,0,0,0-4.26,3.65,9.37,9.37,0,0,0-1.55,5.3,9.22,9.22,0,0,0,1.55,5.19,10.15,10.15,0,0,0,4.26,3.61A14.39,14.39,0,0,0,2241.78,1573Z"/><polygon class="cls-1" points="2181.32 1421.51 2198.18 1404.64 2181.32 1387.78 2181.4 1387.78 2164.53 1404.64 2181.4 1421.51 2181.32 1421.51"/><polygon class="cls-1" points="2181.32 1680.19 2198.18 1663.32 2181.32 1646.45 2181.4 1646.45 2164.53 1663.32 2181.4 1680.19 2181.32 1680.19"/><rect class="cls-1" x="1288.55" y="1009.53" width="6.95" height="815.82"/><path class="cls-1" d="M694.76,1804.47v20.88H559.42v-20.88h39.63q.09-309.26.18-618.59c2.06.55,4.15,1.06,6.21,1.58a424.58,424.58,0,0,0,50.29,181.48v435.53Z"/><path class="cls-1" d="M1204,1804.47v20.88H1068.7v-20.88H1108V1368.94a424.39,424.39,0,0,0,50.3-181.48c2.06-.52,4.12-1,6.21-1.58q.09,309.31.18,618.59Z"/><path class="cls-1" d="M1114.67,1152.69a516.81,516.81,0,0,1-2.88,74.47c-4.11,36.86-7.18,64.37-21.62,93.33s-28.19,35.2-66.62,75.46c-28.84,30.22-64.27,67.34-86.42,108.45a249.57,249.57,0,0,0-29.58,113.8,553.08,553.08,0,0,0-25.25-85c-.06-.16-.12-.32-.19-.47l.08-.08,1.25-1.33c5.71-6.07,33.75-38.4,25.06-77.86a74.64,74.64,0,0,0-13.42-28.79l-3-19.42-4.71.29-.55,18.31a102.47,102.47,0,0,0-18.41,47.69,101.27,101.27,0,0,0,1.84,33.67Q865,1494,859,1483.19l0,0a2,2,0,0,0-.11-.2l-.49-.69.06-.09,1.27-2.06c4.36-7.09,25.33-44.4,8.87-81.31a74.43,74.43,0,0,0-18.93-25.5l-6.83-18.43-4.56,1.23,3.15,18.06a102.42,102.42,0,0,0-8.43,50.42,100.37,100.37,0,0,0,5.86,26c-5.57-8.06-11.08-15.33-16.59-22.24-.12-.16-.26-.32-.37-.47l.37-.71c5.44-10.27,21.58-45.89,4.82-79.89a74.48,74.48,0,0,0-19.88-24.76l-7.55-18.15-4.5,1.4,3.84,17.93a102.37,102.37,0,0,0-6.49,50.69,100,100,0,0,0,6.42,24.66c.32.79.65,1.57,1,2.34l-1-1.17c-4.55-5.45-9.19-11.11-13.93-17.15-1.62-2.07-3.21-4.13-4.75-6.16l.41-.73c4.1-7.27,23.62-45.35,5.76-81.6a74.36,74.36,0,0,0-19.9-24.75l-7.53-18.16-4.51,1.4,3.83,17.93a102.65,102.65,0,0,0-6.48,50.7,100.41,100.41,0,0,0,5.64,22.67c-7.65-11.92-14.34-23.43-20.64-34.88l.13-.2c4.15-6.46,24.13-40.41,9.64-74.69a68.63,68.63,0,0,0-16.95-23.82l-6-17.1-4.22,1.05,2.57,16.69a94.38,94.38,0,0,0-8.68,46.26c.23,3.21.61,6.32,1.12,9.3q-6.54-13.12-12.56-26.59l.89-1.3c3.94-5.69,23-35.68,11-67a61.92,61.92,0,0,0-14.56-22l-4.85-15.58-3.83.82,1.81,15.1a85.13,85.13,0,0,0-9.22,41.42c0,.89.07,1.77.13,2.63q-4.7-12.74-8.94-25.74h0l.74-1c3.68-4.81,21.54-30.2,12.36-58a54.2,54.2,0,0,0-11.81-19.8l-3.59-13.81-3.38.56,1,13.27a74.63,74.63,0,0,0-9.45,29.95c-.78-3.09-1.55-6.2-2.3-9.31,3.6-9.1,14-40.58-3.29-67.68a62.94,62.94,0,0,0-19-19l-8-14.57-3.67,1.59,4.88,14.73a86.07,86.07,0,0,0,23.17,85.08h0q2,8.32,4.17,16.55a74.51,74.51,0,0,0-29.16-22.76l-7.17-11.21-3,1.57,5.37,13.22a54.08,54.08,0,0,0,2.37,22.92c9.1,27.23,37.57,37.09,44.22,39q4,12.36,8.46,24.5a85.33,85.33,0,0,0-35-22.88l-9.2-12.12-3.32,2.07,7.34,14.57a61.67,61.67,0,0,0,4.8,25.93c13.12,30.87,47.64,39.22,54.43,40.58l.46.09q4.74,10.63,9.83,21c-.22-.19-.42-.38-.63-.58a94.36,94.36,0,0,0-41.66-21.89L652.64,1229l-3.43,2.67,9.71,15.26a68.42,68.42,0,0,0,8.16,28.09c17.91,32.62,56.93,38,64.57,38.77l.93.08c3.55,6.44,7.25,12.9,11.18,19.46-1.59-1.25-3.26-2.49-5-3.69a102.55,102.55,0,0,0-48-17.5l-14.17-11.63-3.31,3.35,12.67,15a74.56,74.56,0,0,0,12.87,29c24,32.51,66.79,32.64,75.13,32.33l1.5,0q2.4,3.15,4.93,6.38c4.21,5.38,8.36,10.47,12.42,15.36a99,99,0,0,0-18.86-11.82,102.67,102.67,0,0,0-50.16-9.85L708,1371l-2.75,3.83,14.86,12.88a74.5,74.5,0,0,0,17.2,26.69c28.77,28.39,71.06,21.88,79.25,20.28l2.88-.56c6.25,7.93,12.5,16.35,18.83,26h0c.09.14.18.26.26.4-.15-.14-.32-.27-.47-.4h0a100.69,100.69,0,0,0-28.67-16.59,102.55,102.55,0,0,0-50.83-5.33L742,1430.3l-2.4,4.07,15.94,11.5A74.47,74.47,0,0,0,775,1470.92c28.55,23.54,65.77,16.93,78,13.87l.18,0,0,0c5.76,10.33,11.08,21,15.92,31.75a101.42,101.42,0,0,0-88.81-28.39l-16.71-7.55-2.32,4.1,16.15,11.22a74.44,74.44,0,0,0,20,24.7c28.73,22.83,65.48,15.85,78,12.53,29.94,74.94,44.94,171.23,44.58,286.4h6.38c.19-60.92-3.9-116.65-12.21-166.78,3.55-11.12,6.92-68.43,44.59-135.76,30.73-54.9,62.42-77.4,89.14-108.5C1087.08,1362.85,1126.25,1286.22,1114.67,1152.69Zm-460.14-45a83.65,83.65,0,0,1-22.75-39.83,82.61,82.61,0,0,1,.73-41.16l.35.22a59,59,0,0,1,18.23,18C666.59,1069.36,658.31,1097.72,654.53,1107.74Zm-26.9,22.18a50.86,50.86,0,0,1-2.17-21.89l0-.37a71.17,71.17,0,0,1,27.82,21.77,68,68,0,0,1,5.56,8.52s0,0,0,0q3.95,14.14,8.39,28C658.38,1163,635.4,1153.17,627.63,1129.92Zm43.55,29.2h0q-4.09-13.11-7.73-26.45a68.2,68.2,0,0,1-.26-6.94,70.94,70.94,0,0,1,9.28-34.08l.25.27a50.78,50.78,0,0,1,11.35,18.84c7.75,23.52-5.1,45.34-10.36,52.89C672.91,1162.31,672.05,1160.81,671.18,1159.12Zm-25.86,41.45a57.89,57.89,0,0,1-4.46-24.76v-.42a80,80,0,0,1,40.76,31.37h0q5.79,15.07,12.21,29.78c.11.56.21,1.12.31,1.66C683.94,1235.69,656.41,1226.64,645.32,1200.57Zm41.66-8.89a81,81,0,0,1,8.77-39.45l.29.28a58,58,0,0,1,14,20.93c10.14,26.44-3.37,52.08-9,61A82,82,0,0,1,687,1191.68ZM670.9,1272.9a64.5,64.5,0,0,1-7.67-26.83l0-.46a90,90,0,0,1,39.66,20.87,88.27,88.27,0,0,1,10.81,11.8h0l1.63,3.16c4.11,7.87,8.17,15.63,12.36,23.4.49,1.48.91,2.89,1.28,4.19C717.41,1307.39,686,1300.45,670.9,1272.9Zm58.05,22a4.1,4.1,0,0,1-.22-.41c-.61-1.09-1.21-2.21-1.8-3.39-.08-.17-.16-.34-.25-.51a88.87,88.87,0,0,1-.8-77.37l.34.31a64.6,64.6,0,0,1,16.29,22.67c12.22,28.93-1.8,57.87-7.66,67.94A90.13,90.13,0,0,1,729,1294.94Zm-26.33,50.16a70.21,70.21,0,0,1-12.17-27.77l-.09-.49a97.76,97.76,0,0,1,45.72,16.69,95,95,0,0,1,17.53,15.61s0,0,0,0c4.24,6.52,8.75,13.16,13.66,20l0,0c1.19,2.29,2.18,4.42,3,6.36C757.68,1375.45,722.88,1372.54,702.62,1345.1ZM756.45,1321a97.74,97.74,0,0,1,6.16-48.28l.39.31a70,70,0,0,1,19.09,23.55c15.08,30.6,1.69,62.85-4,74.14A98.94,98.94,0,0,1,756.45,1321Zm-15.84,90a69.77,69.77,0,0,1-16.32-25.55l-.17-.46a97.77,97.77,0,0,1,47.75,9.38,99,99,0,0,1,40.37,36.2C799.72,1432.46,764.89,1435,740.61,1411Zm78.33,12.08c-.07.13-.13.25-.19.38-1.61-2-3.37-4.27-5.17-6.91l-.05-.06a96.74,96.74,0,0,1-10.23-91l.38.31a70,70,0,0,1,19.09,23.54C837.68,1379.58,824.76,1411.47,818.94,1423.09Zm31.85,57.37-.18,0c-12.72,3-46.61,8.17-72.58-13.24a70.07,70.07,0,0,1-18.52-24l-.23-.46a96.92,96.92,0,0,1,89.66,34.81v0q.39.46.75.93c.5.62,1,1.23,1.42,1.8Zm-13.15-56.32a97.6,97.6,0,0,1,8-48l.38.32a70.15,70.15,0,0,1,18.17,24.26c13.89,31.17-.72,62.88-6.87,73.94A98.88,98.88,0,0,1,837.64,1424.14Zm35.94,104.59c-12.33,3.21-46.57,9.34-73.21-11.83a70.1,70.1,0,0,1-19-23.65l-.22-.44a97.78,97.78,0,0,1,48.5,4.22,98.82,98.82,0,0,1,43.76,31.37l.24.3Zm-.43-56.66a97.64,97.64,0,0,1,17.5-45.41l.3.39a69.93,69.93,0,0,1,12.92,27.43c7.34,33.31-13.35,61.44-21.61,71A98.93,98.93,0,0,1,873.15,1472.07Z"/><path class="cls-1" d="M1426.65,1817.36,1429,1814h-22.65v-.56q.29-3.92.29-9.06v-28.49a16.94,16.94,0,0,0-2.44.29l-3,.51-.23-.34,1.31-2H1425l-2.15-3.34.05-.11h2.49l3,8.72-1,.45a6.67,6.67,0,0,0-2.3-2.2,13.24,13.24,0,0,0-4.75-1.39,66.66,66.66,0,0,0-9.15-.48h-1.36v17.21H1418a.1.1,0,0,0,.11-.11v-4h2.66l-1.3,10.59h-1.36v-4.47a.1.1,0,0,0-.11-.11h-8.16v17.15h1.7a100.3,100.3,0,0,0,11.69-.51,17.16,17.16,0,0,0,5.67-1.41,6,6,0,0,0,2.35-2.21l.11-.11.11-.23,1.08.51-3.28,9.12h-2.5Z"/><path class="cls-1" d="M1450.66,1814.7q-4.53,0-6.91-2.07a6.7,6.7,0,0,1-2.38-5.29,6.4,6.4,0,0,1,2.1-5.07,11.86,11.86,0,0,1,5.12-2.57,43.11,43.11,0,0,1,7.05-1,36.34,36.34,0,0,0,4.36-.51,7.74,7.74,0,0,0,2.72-1,2.13,2.13,0,0,0,1-1.87,9,9,0,0,0-2-6.06,6.45,6.45,0,0,0-5.15-2.32,10,10,0,0,0-4.82,1.19,13.9,13.9,0,0,0-4,3.23,21.3,21.3,0,0,0-3.06,4.75v.06l-1.42-.34,3.06-11.61h2l.11.23-1.86,5a4.71,4.71,0,0,0,1.64-1,17,17,0,0,1,3.65-2.38,10.83,10.83,0,0,1,4.67-.91,8.89,8.89,0,0,1,7.14,3.06,12.38,12.38,0,0,1,2.6,8.27v16a32.11,32.11,0,0,0,3.85-.62,2.37,2.37,0,0,1,.34-.08.42.42,0,0,0,.23-.09l.17.34-1,2h-6.46v-.56c0-.65.07-1.31.08-2s0-1.41,0-2.13c0-.41.06-.84.06-1.27v-1.33a11.4,11.4,0,0,1-5,5.8A15.32,15.32,0,0,1,1450.66,1814.7Zm.62-2a13.27,13.27,0,0,0,6.37-1.53,11.66,11.66,0,0,0,4.5-4.13,10.5,10.5,0,0,0,1.65-5.72v-3.06a7.42,7.42,0,0,1-2.86,1.27,28.05,28.05,0,0,1-4.73.71c-4.12.31-7.13,1-9,2.07a5.27,5.27,0,0,0-2.86,4.9,4.78,4.78,0,0,0,1.87,4.07A8.19,8.19,0,0,0,1451.28,1812.72Z"/><path class="cls-1" d="M1503.77,1796.07a13.68,13.68,0,0,0-3.28-4.75,16.67,16.67,0,0,0-4.73-3.18,12.75,12.75,0,0,0-5.12-1.13,8.26,8.26,0,0,0-4.93,1.28,4.36,4.36,0,0,0-.45,6.62,9.91,9.91,0,0,0,3.31,2,53.62,53.62,0,0,0,5.24,1.62s.09,0,.17,0a.46.46,0,0,1,.22.06l.48.11.49.12a50.27,50.27,0,0,1,5.69,1.89,9.79,9.79,0,0,1,3.62,2.52,5.87,5.87,0,0,1,1.39,4,6.21,6.21,0,0,1-2.83,5.47,12.17,12.17,0,0,1-6.91,1.9,15.11,15.11,0,0,1-5.86-1,20.9,20.9,0,0,1-4.45-2.57l-1.16-.65a2.82,2.82,0,0,0-.88-.37l2.1,5.38-.17.22h-2l-3.23-12.23,1.3-.39a19.07,19.07,0,0,0,3.54,4.9,17.54,17.54,0,0,0,5,3.51,14.49,14.49,0,0,0,6.15,1.33,9.18,9.18,0,0,0,5-1.28,4.07,4.07,0,0,0,2-3.65,3.84,3.84,0,0,0-1.25-2.92,9.33,9.33,0,0,0-3.17-1.86,46.19,46.19,0,0,0-5.15-1.5l-.23-.06a57.18,57.18,0,0,1-6.26-2,11.33,11.33,0,0,1-4.13-2.75,6.06,6.06,0,0,1-1.61-4.33,6.32,6.32,0,0,1,2.52-5.32,10.86,10.86,0,0,1,6.76-1.93,13.58,13.58,0,0,1,5.61,1,18.36,18.36,0,0,1,4.13,2.57,6.27,6.27,0,0,1,.68.43q.29.19.57.36l-1.93-5.09.17-.23h2l3.12,11.44Z"/><path class="cls-1" d="M1535,1815.21l1.7-4a5.56,5.56,0,0,0-.77.39c-.24.16-.51.33-.82.51a26,26,0,0,1-3.05,1.79,7,7,0,0,1-3,.65,6.56,6.56,0,0,1-5.32-2.24,9.49,9.49,0,0,1-1.87-6.25v-18.69h-2.26a14.5,14.5,0,0,0-1.87.17c-.79.11-1.55.24-2.27.4l-.56.11-.17-.34,1.13-2h4.25a2.67,2.67,0,0,0,1.53-.31,2.79,2.79,0,0,0,1-.94,2.43,2.43,0,0,0,.34-1.3v-4.58l.9,0a3.91,3.91,0,0,1,.85,0v7.13h.85c1.4,0,3.55-.09,6.46-.25s4.7-.3,5.38-.37l.22.34-1.13,2h-11.78V1799c0,.94,0,1.83,0,2.66s-.12,1.66-.23,2.49c-.07.53-.12,1-.14,1.48s0,.94,0,1.47a6.3,6.3,0,0,0,1.3,4.27,4.49,4.49,0,0,0,3.57,1.5,6.53,6.53,0,0,0,3.23-1,15.24,15.24,0,0,0,3.2-2.46,13.12,13.12,0,0,0,2.18-2.75l.28-.67,1.42.28-2.27,9.23h-2Z"/><path class="cls-1" d="M1571.38,1815.44l2-5.33a5.21,5.21,0,0,0-.73.4,7.68,7.68,0,0,0-.91.68,17.67,17.67,0,0,1-3.59,2.46,10.23,10.23,0,0,1-4.68.94,14.16,14.16,0,0,1-7.24-1.9,13.33,13.33,0,0,1-5.13-5.29,16.23,16.23,0,0,1,0-15,13.53,13.53,0,0,1,5.13-5.32,14.78,14.78,0,0,1,14.55,0,13.21,13.21,0,0,1,5,5.21,15.69,15.69,0,0,1,1.78,7.56v1h-25.31a14.33,14.33,0,0,0,1.64,6.17,11.31,11.31,0,0,0,4,4.28,10.55,10.55,0,0,0,10.39.37,14.15,14.15,0,0,0,4-3.06,13.53,13.53,0,0,0,2.49-3.74v-.11l1.7.51-2.89,10.47h-2Zm3.17-16.54a14.49,14.49,0,0,0-1.61-6.17,10.78,10.78,0,0,0-3.88-4.22,11.13,11.13,0,0,0-11.21,0,11.15,11.15,0,0,0-4,4.25,14.25,14.25,0,0,0-1.64,6.11Z"/><path class="cls-1" d="M1614.19,1795.17l-1.53.56a17.07,17.07,0,0,0-2.52-4.41,12.14,12.14,0,0,0-3.34-3,7.35,7.35,0,0,0-3.71-1.07,5.52,5.52,0,0,0-3.68,1.47,10.21,10.21,0,0,0-2.72,4,15.48,15.48,0,0,0-1,5.74v13.93a14,14,0,0,0,2.24-.28l2.75-.51.17.34-1,2h-7.19v-.56q.17-4.87.17-9.06v-17.16a26.34,26.34,0,0,0-3.68.62l-.74.17-.17-.34,1.08-2H1593l1.5,0c.55,0,1,0,1.28-.08v.51l-.12,1.92c0,.68-.06,1.35-.08,2s0,1.33,0,2a11.73,11.73,0,0,1,3.31-5,7.11,7.11,0,0,1,4.68-1.87,7,7,0,0,1,3.76.91,13.19,13.19,0,0,1,2.69,2.26,5.31,5.31,0,0,0,.57.51,4.75,4.75,0,0,1,.39.34l-1.81-4.87.17-.17h2Z"/><path class="cls-1" d="M1657.34,1812l-1.08,2h-6.62v-.56c.15-2.84.22-5.85.22-9.06v-5.33c0-3.7-.84-6.6-2.52-8.72a9.1,9.1,0,0,0-12-1.61,10.68,10.68,0,0,0-3.54,4.33,14.2,14.2,0,0,0-1.3,6.12v5.21c0,2.79.07,5.81.23,9.06v.56h-3.29v-.56q.16-4.87.17-9.06v-17.16a26.34,26.34,0,0,0-3.68.62l-.74.17-.17-.34,1.08-2h3.74l1.5,0c.54,0,1,0,1.22-.08l0,.51c-.07,1.05-.13,2.11-.17,3.17s0,2.15,0,3.28a11.31,11.31,0,0,1,4.1-5.43,10.8,10.8,0,0,1,6.43-2,11.81,11.81,0,0,1,6.34,1.65,10.6,10.6,0,0,1,4.08,4.75,17.89,17.89,0,0,1,1.41,7.42v13.53a29.75,29.75,0,0,0,3.74-.62,2.09,2.09,0,0,1,.34-.08,2.14,2.14,0,0,0,.34-.09Z"/><path class="cls-1" d="M1712.32,1817.36l2.32-3.34H1692v-.56q.29-3.92.29-9.06v-28.49a16.94,16.94,0,0,0-2.44.29l-3,.51-.23-.34,1.31-2h22.76l-2.15-3.34,0-.11h2.5l3,8.72-1,.45a6.67,6.67,0,0,0-2.3-2.2,13.24,13.24,0,0,0-4.75-1.39,66.66,66.66,0,0,0-9.15-.48h-1.36v17.21h8.16a.1.1,0,0,0,.11-.11v-4h2.66l-1.3,10.59h-1.36v-4.47a.1.1,0,0,0-.11-.11h-8.16v17.15h1.7a100.61,100.61,0,0,0,11.7-.51,17.15,17.15,0,0,0,5.66-1.41,6,6,0,0,0,2.35-2.21l.11-.11.11-.23,1.08.51-3.28,9.12h-2.5Z"/><path class="cls-1" d="M1741.14,1814.59a12.05,12.05,0,0,1-6.37-1.64,10.48,10.48,0,0,1-4.1-4.76,17.88,17.88,0,0,1-1.42-7.47v-13.48a24.78,24.78,0,0,0-3.68.62l-.73.17-.17-.34,1.07-2h3.91l1.41,0c.57,0,1,0,1.25-.08l.06.51q-.22,4.07-.23,9.23v5.38c0,3.7.85,6.59,2.55,8.69a9.13,9.13,0,0,0,12,1.58,10.31,10.31,0,0,0,3.54-4.33,14.47,14.47,0,0,0,1.28-6.11v-5.44q0-4.14-.23-8.83v-.57h.68l1.39,0c.54,0,1,0,1.21-.08l.06.51q-.22,4.41-.23,9.23v17.15a18,18,0,0,0,3.68-.62l.4-.08a2.14,2.14,0,0,0,.34-.09l.17.34-1,2h-6.57v-.56l.12-1.48c0-.49,0-1,0-1.52s0-1.11,0-1.62,0-1,0-1.61a12,12,0,0,1-4.13,5.38A10.67,10.67,0,0,1,1741.14,1814.59Z"/><path class="cls-1" d="M1794.48,1795.17l-1.53.56a16.78,16.78,0,0,0-2.52-4.41,12.14,12.14,0,0,0-3.34-3,7.31,7.31,0,0,0-3.7-1.07,5.54,5.54,0,0,0-3.69,1.47,10.19,10.19,0,0,0-2.71,4,15.48,15.48,0,0,0-1,5.74v13.93a13.93,13.93,0,0,0,2.23-.28l2.75-.51.17.34-1,2h-7.19v-.56q.16-4.87.17-9.06v-17.16a26.34,26.34,0,0,0-3.68.62l-.74.17-.17-.34,1.08-2h3.74l1.5,0c.54,0,1,0,1.27-.08v.51L1776,1788q-.06,1-.09,2t0,2a11.66,11.66,0,0,1,3.32-5,7.08,7.08,0,0,1,4.67-1.87,7,7,0,0,1,3.76.91,12.92,12.92,0,0,1,2.69,2.26,5.31,5.31,0,0,0,.57.51l.4.34-1.82-4.87.17-.17h2Z"/><path class="cls-1" d="M1818.21,1814.59a15.06,15.06,0,0,1-7.59-2,14.25,14.25,0,0,1-5.41-5.32,14.58,14.58,0,0,1-2-7.44,14.73,14.73,0,0,1,2-7.51,14.16,14.16,0,0,1,5.38-5.29,16,16,0,0,1,15.24,0,14.29,14.29,0,0,1,5.4,5.29,14.56,14.56,0,0,1,2,7.51,14.55,14.55,0,0,1-7.39,12.76A15.07,15.07,0,0,1,1818.21,1814.59Zm0-1.81a11.07,11.07,0,0,0,6.06-1.73,12.16,12.16,0,0,0,4.27-4.64,14.55,14.55,0,0,0,0-13.11,12,12,0,0,0-4.27-4.65,11.71,11.71,0,0,0-12.12,0,12,12,0,0,0-4.27,4.65,14.55,14.55,0,0,0,0,13.11,12.16,12.16,0,0,0,4.27,4.64A11.07,11.07,0,0,0,1818.21,1812.78Z"/><path class="cls-1" d="M1848.05,1824.78q.17-4.82.17-9.06v-28.48a26.34,26.34,0,0,0-3.68.62l-.74.17-.17-.34,1.08-2h3.74l1.44,0c.55,0,1,0,1.28-.08l0,.51c0,.56-.06,1.13-.08,1.7s-.05,1.13-.09,1.69,0,1.15,0,1.73V1793a11.89,11.89,0,0,1,11.49-7.88,12.3,12.3,0,0,1,6.71,1.93,13.12,13.12,0,0,1,4.73,5.29,16.49,16.49,0,0,1,1.7,7.51,16.06,16.06,0,0,1-1.73,7.47,13.62,13.62,0,0,1-4.73,5.29,12.6,12.6,0,0,1-13.67-.11,12.12,12.12,0,0,1-4.39-5.58v16.88a37.48,37.48,0,0,0,4.53-.62,4.88,4.88,0,0,0,.85-.17l.22.34-1.24,2h-7.42Zm13.82-12.12a9.34,9.34,0,0,0,5.46-1.7,11.46,11.46,0,0,0,3.85-4.58,16,16,0,0,0,0-13,11.46,11.46,0,0,0-3.85-4.58,9.69,9.69,0,0,0-11,0,12.13,12.13,0,0,0-3.88,4.64,15.25,15.25,0,0,0,0,12.94,11.94,11.94,0,0,0,3.88,4.58A9.4,9.4,0,0,0,1861.87,1812.66Z"/><path class="cls-1" d="M1909.21,1815.44l2-5.33a5.22,5.22,0,0,0-.74.4,7.6,7.6,0,0,0-.9.68,17.46,17.46,0,0,1-3.6,2.46,10.19,10.19,0,0,1-4.67.94,14.2,14.2,0,0,1-7.25-1.9,13.24,13.24,0,0,1-5.12-5.29,16.23,16.23,0,0,1,0-15,13.44,13.44,0,0,1,5.12-5.32,14.21,14.21,0,0,1,7.31-1.93,14,14,0,0,1,7.24,1.9,13.15,13.15,0,0,1,5,5.21,15.7,15.7,0,0,1,1.79,7.56v1h-25.31a14.19,14.19,0,0,0,1.64,6.17,11.21,11.21,0,0,0,4,4.28,10.55,10.55,0,0,0,10.39.37,14.34,14.34,0,0,0,4-3.06,13.53,13.53,0,0,0,2.49-3.74v-.11l1.7.51-2.89,10.47h-2Zm3.17-16.54a14.49,14.49,0,0,0-1.62-6.17,10.71,10.71,0,0,0-3.88-4.22,11.13,11.13,0,0,0-11.21,0,11,11,0,0,0-4,4.25,14.11,14.11,0,0,0-1.64,6.11Z"/><path class="cls-1" d="M1935.25,1814.7q-4.53,0-6.9-2.07a6.67,6.67,0,0,1-2.38-5.29,6.42,6.42,0,0,1,2.09-5.07,12,12,0,0,1,5.13-2.57,43.11,43.11,0,0,1,7-1,36.86,36.86,0,0,0,4.36-.51,7.68,7.68,0,0,0,2.71-1,2.13,2.13,0,0,0,1-1.87,9,9,0,0,0-2-6.06,6.45,6.45,0,0,0-5.15-2.32,10,10,0,0,0-4.81,1.19,13.81,13.81,0,0,0-4,3.23,21.3,21.3,0,0,0-3.06,4.75v.06l-1.41-.34,3.06-11.61h2l.11.23-1.87,5a4.63,4.63,0,0,0,1.64-1,17.28,17.28,0,0,1,3.65-2.38,10.91,10.91,0,0,1,4.68-.91,8.87,8.87,0,0,1,7.13,3.06,12.33,12.33,0,0,1,2.61,8.27v16a32.76,32.76,0,0,0,3.85-.62,1.87,1.87,0,0,1,.34-.08.41.41,0,0,0,.22-.09l.17.34-1,2h-6.46v-.56c0-.65.07-1.31.09-2s0-1.41,0-2.13c0-.41,0-.84,0-1.27v-1.33a11.31,11.31,0,0,1-4.95,5.8A15.32,15.32,0,0,1,1935.25,1814.7Zm.63-2a13.3,13.3,0,0,0,6.37-1.53,11.81,11.81,0,0,0,4.5-4.13,10.58,10.58,0,0,0,1.64-5.72v-3.06a7.28,7.28,0,0,1-2.86,1.27,27.89,27.89,0,0,1-4.73.71c-4.11.31-7.12,1-9,2.07a5.27,5.27,0,0,0-2.86,4.9,4.78,4.78,0,0,0,1.87,4.07A8.22,8.22,0,0,0,1935.88,1812.72Z"/><path class="cls-1" d="M1998.9,1812l-1.08,2h-6.62v-.56c.15-2.84.22-5.85.22-9.06v-5.33c0-3.7-.84-6.6-2.51-8.72a9.11,9.11,0,0,0-12-1.61,10.68,10.68,0,0,0-3.54,4.33,14.2,14.2,0,0,0-1.3,6.12v5.21c0,2.79.07,5.81.23,9.06v.56H1969v-.56q.16-4.87.17-9.06v-17.16a26.34,26.34,0,0,0-3.68.62l-.74.17-.17-.34,1.08-2h3.74l1.5,0c.54,0,.95,0,1.22-.08l.05.51c-.07,1.05-.13,2.11-.17,3.17s0,2.15,0,3.28a11.31,11.31,0,0,1,4.1-5.43,10.8,10.8,0,0,1,6.43-2,11.79,11.79,0,0,1,6.34,1.65,10.6,10.6,0,0,1,4.08,4.75,17.89,17.89,0,0,1,1.41,7.42v13.53a29.75,29.75,0,0,0,3.74-.62,2.09,2.09,0,0,1,.34-.08,2.14,2.14,0,0,0,.34-.09Z"/><path class="cls-1" d="M2028.57,1794.15a23.23,23.23,0,0,1,2.38-10.62,18,18,0,0,1,6.57-7.36,17,17,0,0,1,9.28-2.63,14.32,14.32,0,0,1,6.88,1.41,25.39,25.39,0,0,1,4.79,3.4,9.42,9.42,0,0,0,.71.65,3.06,3.06,0,0,0,.53.37l-2.15-5.38.23-.34h2.32l3.85,15.23-1.41.45a25.89,25.89,0,0,0-3.63-6.88,19,19,0,0,0-5.49-5,12.86,12.86,0,0,0-6.68-1.89,12.65,12.65,0,0,0-7.51,2.4,15.8,15.8,0,0,0-5.23,6.66,23.45,23.45,0,0,0-1.87,9.57,23.11,23.11,0,0,0,1.92,9.62,16.48,16.48,0,0,0,5.3,6.69,12.67,12.67,0,0,0,7.61,2.43,13.34,13.34,0,0,0,7.2-2.18,20.64,20.64,0,0,0,5.88-5.61,25.27,25.27,0,0,0,3.63-7.27l1.53.39-4.42,16.54h-2.21l-.17-.34,2.44-6.06a1.94,1.94,0,0,0-.8.42c-.3.25-.62.54-1,.88a34.42,34.42,0,0,1-3,2.49,14.22,14.22,0,0,1-3.77,1.9,16,16,0,0,1-5.38.82,17.23,17.23,0,0,1-9.42-2.66,18,18,0,0,1-6.6-7.42A23.41,23.41,0,0,1,2028.57,1794.15Z"/><path class="cls-1" d="M2091.76,1814.59a12.05,12.05,0,0,1-6.37-1.64,10.48,10.48,0,0,1-4.1-4.76,17.88,17.88,0,0,1-1.42-7.47v-13.48a24.78,24.78,0,0,0-3.68.62l-.73.17-.17-.34,1.07-2h3.91l1.41,0c.57,0,1,0,1.25-.08l.06.51q-.22,4.07-.23,9.23v5.38c0,3.7.85,6.59,2.55,8.69a9.13,9.13,0,0,0,12,1.58,10.31,10.31,0,0,0,3.54-4.33,14.47,14.47,0,0,0,1.28-6.11v-5.44q0-4.14-.23-8.83v-.57h.68l1.39,0c.54,0,1,0,1.21-.08l.06.51q-.22,4.41-.23,9.23v17.15a18.2,18.2,0,0,0,3.69-.62l.39-.08a2.14,2.14,0,0,0,.34-.09l.17.34-1,2H2102v-.56l.12-1.48c0-.49,0-1,0-1.52s0-1.11,0-1.62,0-1,0-1.61a11.88,11.88,0,0,1-4.13,5.38A10.67,10.67,0,0,1,2091.76,1814.59Z"/><path class="cls-1" d="M2168.38,1796.07a13.71,13.71,0,0,0-3.29-4.75,16.53,16.53,0,0,0-4.73-3.18,12.68,12.68,0,0,0-5.12-1.13,8.28,8.28,0,0,0-4.93,1.28,4.38,4.38,0,0,0-.45,6.62,10,10,0,0,0,3.31,2,54.51,54.51,0,0,0,5.24,1.62.22.22,0,0,0,.17,0,.49.49,0,0,1,.23.06l.48.11.48.12a50.27,50.27,0,0,1,5.69,1.89,9.91,9.91,0,0,1,3.63,2.52,5.91,5.91,0,0,1,1.38,4,6.19,6.19,0,0,1-2.83,5.47,12.17,12.17,0,0,1-6.91,1.9,15.15,15.15,0,0,1-5.86-1,20.83,20.83,0,0,1-4.44-2.57c-.42-.23-.81-.44-1.16-.65a2.82,2.82,0,0,0-.88-.37l2.09,5.38-.17.22h-2l-3.23-12.23,1.31-.39a18.61,18.61,0,0,0,3.54,4.9,17.54,17.54,0,0,0,5,3.51,14.45,14.45,0,0,0,6.14,1.33,9.18,9.18,0,0,0,5-1.28,4.07,4.07,0,0,0,2-3.65,3.81,3.81,0,0,0-1.25-2.92,9.23,9.23,0,0,0-3.17-1.86,46.19,46.19,0,0,0-5.15-1.5l-.23-.06a56.93,56.93,0,0,1-6.25-2,11.38,11.38,0,0,1-4.14-2.75,6.11,6.11,0,0,1-1.61-4.33,6.32,6.32,0,0,1,2.52-5.32,10.91,10.91,0,0,1,6.77-1.93,13.56,13.56,0,0,1,5.6,1,18.65,18.65,0,0,1,4.14,2.57,7.43,7.43,0,0,1,.68.43,6.65,6.65,0,0,0,.56.36l-1.92-5.09.17-.23h2l3.11,11.44Z"/><path class="cls-1" d="M2185.48,1813.46q.17-4.87.17-9.06v-17.16a26.34,26.34,0,0,0-3.68.62l-.74.17-.17-.34,1.08-2h3.9l1.45,0c.51,0,.93,0,1.27-.08l.06.51q-.29,4.19-.28,9.23v17.15a19.88,19.88,0,0,0,3.56-.56l.85-.23.17.34-1,2h-6.62Zm3.68-41.62-1.87,9.51h-.57l-1.87-9.51Z"/><path class="cls-1" d="M2237,1812l-1.08,2h-6.62v-.56c.15-2.84.23-5.85.23-9.06v-5.33c0-3.7-.85-6.6-2.52-8.72a9.11,9.11,0,0,0-12-1.61,10.68,10.68,0,0,0-3.54,4.33,14.2,14.2,0,0,0-1.3,6.12v5.21c0,2.79.07,5.81.23,9.06v.56h-3.29v-.56q.16-4.87.17-9.06v-17.16a26.34,26.34,0,0,0-3.68.62l-.74.17-.17-.34,1.08-2h3.74l1.5,0c.55,0,1,0,1.22-.08l0,.51c-.07,1.05-.13,2.11-.17,3.17s-.05,2.15-.05,3.28a11.31,11.31,0,0,1,4.1-5.43,10.8,10.8,0,0,1,6.43-2,11.79,11.79,0,0,1,6.34,1.65,10.6,10.6,0,0,1,4.08,4.75,17.89,17.89,0,0,1,1.41,7.42v13.53a29.75,29.75,0,0,0,3.74-.62,2.09,2.09,0,0,1,.34-.08,2.14,2.14,0,0,0,.34-.09Z"/><path class="cls-1" d="M2269.06,1815.44l2-5.33a5.22,5.22,0,0,0-.74.4,7.6,7.6,0,0,0-.9.68,17.73,17.73,0,0,1-3.6,2.46,10.19,10.19,0,0,1-4.67.94,14.17,14.17,0,0,1-7.25-1.9,13.24,13.24,0,0,1-5.12-5.29,16.23,16.23,0,0,1,0-15,13.44,13.44,0,0,1,5.12-5.32,14.78,14.78,0,0,1,14.55,0,13.21,13.21,0,0,1,5,5.21,15.7,15.7,0,0,1,1.79,7.56v1h-25.31a14.19,14.19,0,0,0,1.64,6.17,11.21,11.21,0,0,0,4,4.28,10.55,10.55,0,0,0,10.39.37,14.15,14.15,0,0,0,4-3.06,13.36,13.36,0,0,0,2.5-3.74v-.11l1.7.51-2.89,10.47h-2Zm3.17-16.54a14.49,14.49,0,0,0-1.62-6.17,10.71,10.71,0,0,0-3.88-4.22,11.13,11.13,0,0,0-11.21,0,11,11,0,0,0-4,4.25,14.11,14.11,0,0,0-1.64,6.11Z"/><path class="cls-1" d="M2125.74,1813.48q.16-4.86.17-9.06v-17.15a26.34,26.34,0,0,0-3.68.62l-.74.17-.17-.34,1.08-2h3.91l1.44,0c.51,0,.93,0,1.27-.09l.06.52c-.19,2.79-.28,5.87-.28,9.22v17.16a20.88,20.88,0,0,0,3.56-.56l.85-.23.17.34-1,2h-6.62Zm3.68-41.62-1.87,9.52H2127l-1.87-9.52Z"/></svg>